<?xml version="1.0" encoding="UTF-8" standalone="no"?>
<!DOCTYPE svg PUBLIC "-//W3C//DTD SVG 1.1//EN" "http://www.w3.org/Graphics/SVG/1.1/DTD/svg11.dtd">
<!-- Generated by graphviz version 2.40.1 (20161225.0304) -->
<!-- Title: CFSMs Pages: 1 -->
<svg width="477pt" height="212pt" viewBox="0.00 0.00 477.00 211.60" xmlns="http://www.w3.org/2000/svg" xmlns:xlink="http://www.w3.org/1999/xlink">
<g id="graph0" class="graph" transform="scale(1 1) rotate(0) translate(4 207.6)"><title>CFSMs</title><polygon fill="#ffffff" stroke="transparent" points="-4,4 -4,-207.6 473,-207.6 473,4 -4,4"/><g id="clust1" class="cluster"><title>cluster_A</title><polygon fill="none" stroke="#ffffff" points="8,-8 8,-195.6 224,-195.6 224,-8 8,-8"/><text text-anchor="middle" x="116" y="-179" font-family="Times,serif" font-size="14.00" fill="#000000">A</text></g><g id="clust2" class="cluster"><title>cluster_M1</title><polygon fill="none" stroke="#ffffff" points="242,-8 242,-195.6 461,-195.6 461,-8 242,-8"/><text text-anchor="middle" x="351.5" y="-179" font-family="Times,serif" font-size="14.00" fill="#000000">M1</text></g><!-- Aq0 --><g id="node1" class="node"><title>Aq0</title><ellipse fill="#6495ed" stroke="#6495ed" cx="88" cy="-152.8" rx="27" ry="18"/><text text-anchor="middle" x="88" y="-148.6" font-family="Times,serif" font-size="14.00" fill="#000000">q0</text></g><!-- Aq1 --><g id="node2" class="node"><title>Aq1</title><ellipse fill="none" stroke="#000000" cx="88" cy="-26" rx="27" ry="18"/><text text-anchor="middle" x="88" y="-21.8" font-family="Times,serif" font-size="14.00" fill="#000000">q1</text></g><!-- Aq0&#45;&gt;Aq1 --><g id="edge1" class="edge"><title>Aq0&#45;&gt;Aq1</title><path fill="none" stroke="#000000" d="M69.3493,-139.5488C52.6041,-125.8767 31.8491,-103.4398 40.2332,-81 44.9362,-68.4124 53.9636,-56.7994 62.9156,-47.5202"/><polygon fill="#000000" stroke="#000000" points="65.6013,-49.79 70.3209,-40.3045 60.7161,-44.7765 65.6013,-49.79"/><text text-anchor="middle" x="79.3834" y="-85.2" font-family="Times,serif" font-size="14.00" fill="#000000">A路M1 ! hello</text></g><!-- Aq0&#45;&gt;Aq1 --><g id="edge2" class="edge"><title>Aq0&#45;&gt;Aq1</title><path fill="none" stroke="#000000" d="M101.5774,-137.042C112.1699,-122.8153 124.2727,-101.0933 119,-81 116.2457,-70.5041 110.9856,-59.9008 105.5697,-50.8428"/><polygon fill="#000000" stroke="#000000" points="108.5014,-48.9303 100.1889,-42.3612 102.5905,-52.6802 108.5014,-48.9303"/><text text-anchor="middle" x="161.7144" y="-85.2" font-family="Times,serif" font-size="14.00" fill="#000000">A路M1 ! world</text></g><!-- M1q0 --><g id="node3" class="node"><title>M1q0</title><ellipse fill="#6495ed" stroke="#6495ed" cx="323" cy="-152.8" rx="27" ry="18"/><text text-anchor="middle" x="323" y="-148.6" font-family="Times,serif" font-size="14.00" fill="#000000">q0</text></g><!-- M1q1 --><g id="node4" class="node"><title>M1q1</title><ellipse fill="none" stroke="#000000" cx="323" cy="-26" rx="27" ry="18"/><text text-anchor="middle" x="323" y="-21.8" font-family="Times,serif" font-size="14.00" fill="#000000">q1</text></g><!-- M1q0&#45;&gt;M1q1 --><g id="edge3" class="edge"><title>M1q0&#45;&gt;M1q1</title><path fill="none" stroke="#000000" d="M305.2558,-139.0522C293.8431,-129.021 280.0053,-114.3301 273.6792,-97.8 266.2685,-78.4359 280.9415,-59.2193 296.1697,-45.5462"/><polygon fill="#000000" stroke="#000000" points="298.6505,-48.034 304.0697,-38.93 294.1559,-42.6674 298.6505,-48.034"/><text text-anchor="middle" x="313.1604" y="-85.2" font-family="Times,serif" font-size="14.00" fill="#000000">A路M1 ? hello</text></g><!-- M1q0&#45;&gt;M1q1 --><g id="edge4" class="edge"><title>M1q0&#45;&gt;M1q1</title><path fill="none" stroke="#000000" d="M336.5774,-137.042C347.1699,-122.8153 359.2727,-101.0933 354,-81 351.2457,-70.5041 345.9856,-59.9008 340.5697,-50.8428"/><polygon fill="#000000" stroke="#000000" points="343.5014,-48.9303 335.1889,-42.3612 337.5905,-52.6802 343.5014,-48.9303"/><text text-anchor="middle" x="397.4914" y="-85.2" font-family="Times,serif" font-size="14.00" fill="#000000">A路M1 ? world</text></g></g></svg>